<svg width="115" height="115" viewBox="0 0 115 115" fill="none" xmlns="http://www.w3.org/2000/svg">
<g clip-path="url(#clip0_13_152)">
<path d="M101.135 84.3693C92.1821 99.5493 75.6724 109.729 56.786 109.729C28.3618 109.729 5.31873 86.6669 5.31873 58.2188C5.31873 29.7707 28.3595 6.70837 56.7812 6.70837C24.5 64.5 73.0106 86.2932 101.135 84.3693Z" stroke="#F8A92D" stroke-linecap="round" stroke-linejoin="round"/>
<path d="M79.4348 14.5418C77.3627 12.1033 74.1246 10.2519 70.2895 9.31297C66.4544 8.374 62.2675 8.40748 58.4642 9.40752C54.6609 10.4076 51.4846 12.3102 49.4932 14.7812C47.5018 17.2522 46.8226 20.1336 47.575 22.9192C44.694 23.0319 41.9898 23.924 40.0373 25.4057C38.0849 26.8874 37.0384 28.8418 37.1203 30.8532C37.2021 32.8647 38.406 34.7745 40.4758 36.1766C42.5456 37.5786 45.3181 38.3623 48.2036 38.3609H81.718C84.5381 38.3609 87.3148 37.8761 89.8021 36.9493C92.2895 36.0226 94.4109 34.6825 95.9786 33.0476C97.5463 31.4128 98.5118 29.5337 98.7898 27.5766C99.0678 25.6195 98.6497 23.6448 97.5724 21.8273C96.4952 20.0097 94.792 18.4054 92.6137 17.1564C90.4354 15.9073 87.8491 15.052 85.0838 14.6661C82.3184 14.2803 79.4594 14.3758 76.7596 14.9442C74.0598 15.5126 71.6026 16.5364 69.6055 17.925" fill="#151A2A"/>
<path d="M79.4348 14.5418C77.3627 12.1033 74.1246 10.2519 70.2895 9.31297C66.4544 8.374 62.2675 8.40748 58.4642 9.40752C54.6609 10.4076 51.4846 12.3102 49.4932 14.7812C47.5018 17.2522 46.8226 20.1336 47.575 22.9192C44.694 23.0319 41.9898 23.924 40.0373 25.4057C38.0849 26.8874 37.0384 28.8418 37.1203 30.8532C37.2021 32.8647 38.406 34.7745 40.4758 36.1766C42.5456 37.5786 45.3181 38.3623 48.2036 38.3609H81.718C84.5381 38.3609 87.3148 37.8761 89.8021 36.9493C92.2895 36.0226 94.4109 34.6825 95.9786 33.0476C97.5463 31.4128 98.5118 29.5337 98.7898 27.5766C99.0678 25.6195 98.6497 23.6448 97.5724 21.8273C96.4952 20.0097 94.792 18.4054 92.6137 17.1564C90.4354 15.9073 87.8491 15.052 85.0838 14.6661C82.3184 14.2803 79.4594 14.3758 76.7596 14.9442C74.0598 15.5126 71.6026 16.5364 69.6055 17.925" stroke="#F5F5F5" stroke-miterlimit="10"/>
<path d="M93.4348 36.5418C91.3627 34.1033 88.1246 32.2519 84.2895 31.313C80.4544 30.374 76.2675 30.4075 72.4642 31.4075C68.6609 32.4076 65.4846 34.3102 63.4932 36.7812C61.5018 39.2522 60.8226 42.1336 61.575 44.9192C58.694 45.0319 55.9898 45.924 54.0373 47.4057C52.0849 48.8874 51.0384 50.8418 51.1203 52.8532C51.2021 54.8647 52.406 56.7745 54.4758 58.1766C56.5456 59.5786 59.3181 60.3623 62.2036 60.3609H95.718C98.5381 60.3609 101.315 59.8761 103.802 58.9493C106.29 58.0226 108.411 56.6825 109.979 55.0476C111.546 53.4128 112.512 51.5337 112.79 49.5766C113.068 47.6195 112.65 45.6448 111.572 43.8273C110.495 42.0097 108.792 40.4054 106.614 39.1564C104.435 37.9073 101.849 37.052 99.0838 36.6661C96.3184 36.2803 93.4594 36.3758 90.7596 36.9442C88.0598 37.5126 85.6026 38.5364 83.6055 39.925" fill="#151A2A"/>
<path d="M93.4348 36.5418C91.3627 34.1033 88.1246 32.2519 84.2895 31.313C80.4544 30.374 76.2675 30.4075 72.4642 31.4075C68.6609 32.4076 65.4846 34.3102 63.4932 36.7812C61.5018 39.2522 60.8226 42.1336 61.575 44.9192C58.694 45.0319 55.9898 45.924 54.0373 47.4057C52.0849 48.8874 51.0384 50.8418 51.1203 52.8532C51.2021 54.8647 52.406 56.7745 54.4758 58.1766C56.5456 59.5786 59.3181 60.3623 62.2036 60.3609H95.718C98.5381 60.3609 101.315 59.8761 103.802 58.9493C106.29 58.0226 108.411 56.6825 109.979 55.0476C111.546 53.4128 112.512 51.5337 112.79 49.5766C113.068 47.6195 112.65 45.6448 111.572 43.8273C110.495 42.0097 108.792 40.4054 106.614 39.1564C104.435 37.9073 101.849 37.052 99.0838 36.6661C96.3184 36.2803 93.4594 36.3758 90.7596 36.9442C88.0598 37.5126 85.6026 38.5364 83.6055 39.925" stroke="#F5F5F5" stroke-miterlimit="10"/>
<path d="M55.1431 58.1897C52.5801 55.3831 48.5752 53.2523 43.8318 52.1716C39.0883 51.0909 33.9097 51.1294 29.2057 52.2804C24.5017 53.4314 20.5731 55.6212 18.11 58.4652C15.6469 61.3092 14.8069 64.6255 15.7375 67.8315C12.1742 67.9613 8.82942 68.988 6.41459 70.6934C3.99976 72.3987 2.70534 74.6481 2.80661 76.9632C2.90788 79.2783 4.39686 81.4764 6.95688 83.0901C9.5169 84.7038 12.946 85.6057 16.5149 85.6041H57.967C61.455 85.6041 64.8893 85.0461 67.9658 83.9794C71.0423 82.9128 73.6662 81.3704 75.6051 79.4888C77.5441 77.6073 78.7383 75.4445 79.0821 73.192C79.426 70.9395 78.9088 68.6667 77.5764 66.5748C76.244 64.483 74.1375 62.6365 71.4432 61.1989C68.749 59.7613 65.5502 58.7769 62.1299 58.3328C58.7096 57.8887 55.1734 57.9986 51.8342 58.6528C48.495 59.307 45.4559 60.4854 42.9857 62.0835" fill="#151A2A"/>
<path d="M55.1431 58.1897C52.5801 55.3831 48.5752 53.2523 43.8318 52.1716C39.0883 51.0909 33.9097 51.1294 29.2057 52.2804C24.5017 53.4314 20.5731 55.6212 18.11 58.4652C15.6469 61.3092 14.8069 64.6255 15.7375 67.8315C12.1742 67.9613 8.82942 68.988 6.41459 70.6934C3.99976 72.3987 2.70534 74.6481 2.80661 76.9632C2.90788 79.2783 4.39686 81.4764 6.95688 83.0901C9.5169 84.7038 12.946 85.6057 16.5149 85.6041H57.967C61.455 85.6041 64.8893 85.0461 67.9658 83.9794C71.0423 82.9128 73.6662 81.3704 75.6051 79.4888C77.5441 77.6073 78.7383 75.4445 79.0821 73.192C79.426 70.9395 78.9088 68.6667 77.5764 66.5748C76.244 64.483 74.1375 62.6365 71.4432 61.1989C68.749 59.7613 65.5502 58.7769 62.1299 58.3328C58.7096 57.8887 55.1734 57.9986 51.8342 58.6528C48.495 59.307 45.4559 60.4854 42.9857 62.0835" stroke="#F5F5F5" stroke-miterlimit="10"/>
<path d="M18.0319 96.8057C17.0702 98.278 15.2989 98.8361 14.076 98.052C12.8531 97.2679 12.6404 95.4412 13.6038 93.9671C13.6038 93.9671 14.7247 92.0565 18.7324 90.1168C18.7324 90.1168 19.5212 89.67 19.4641 90.5243C19.2202 94.9584 18.0319 96.8057 18.0319 96.8057ZM37.2992 96.8057C36.3375 98.278 34.5663 98.8361 33.3434 98.052C32.1205 97.2679 31.9077 95.4412 32.8694 93.9671C32.8694 93.9671 33.992 92.0565 37.998 90.1168C37.998 90.1168 38.7885 89.67 38.7314 90.5243C38.4858 94.9584 37.2992 96.8057 37.2992 96.8057ZM27.0247 106.396C26.063 107.87 24.2935 108.429 23.0706 107.646C21.8477 106.864 21.6349 105.034 22.5966 103.56C22.5966 103.56 23.7175 101.649 27.7252 99.7092C27.7252 99.7092 28.514 99.2624 28.4569 100.117C28.213 104.551 27.0247 106.396 27.0247 106.396Z" fill="#151A2A" stroke="#F5F5F5" stroke-width="0.5" stroke-linecap="round" stroke-linejoin="round"/>
</g>
<defs>
<clipPath id="clip0_13_152">
<rect width="115" height="115" fill="white"/>
</clipPath>
</defs>
</svg>
