<svg width="115" height="115" viewBox="0 0 115 115" fill="none" xmlns="http://www.w3.org/2000/svg">
<g clip-path="url(#clip0_14_230)">
<path d="M57.5 8.38538V23.0239M92.2396 22.7604L81.8896 33.1104M106.615 57.5H91.9761M92.2396 92.2395L81.8896 81.8895M57.5 106.615V91.976M22.7604 92.2395L33.1104 81.8895M8.38544 57.5H23.024M22.7604 22.7604L33.1104 33.1104M57.5 31.1458C62.7124 31.1458 67.8077 32.6914 72.1416 35.5873C76.4755 38.4831 79.8534 42.5991 81.8481 47.4147C83.8428 52.2302 84.3647 57.5292 83.3478 62.6414C82.3309 67.7536 79.8209 72.4495 76.1352 76.1352C72.4495 79.8209 67.7537 82.3309 62.6415 83.3477C57.5293 84.3646 52.2303 83.8427 47.4147 81.848C42.5991 79.8533 38.4832 76.4755 35.5873 72.1415C32.6915 67.8076 31.1459 62.7123 31.1459 57.5C31.1459 50.5104 33.9224 43.8071 38.8648 38.8647C43.8072 33.9224 50.5105 31.1458 57.5 31.1458Z" stroke="#F8A92D" stroke-linecap="round" stroke-linejoin="round"/>
<path d="M82.1825 21.5561C80.2467 19.3936 77.2217 17.7518 73.6389 16.9191C70.0561 16.0865 66.1446 16.1162 62.5916 17.003C59.0385 17.8898 56.0712 19.5771 54.2108 21.7683C52.3503 23.9596 51.7158 26.5148 52.4187 28.985C49.7273 29.085 47.201 29.8761 45.377 31.1901C43.553 32.504 42.5753 34.2371 42.6518 36.0209C42.7283 37.8046 43.853 39.4983 45.7866 40.7416C47.7202 41.9849 50.3103 42.6799 53.006 42.6786H84.3155C86.9501 42.6786 89.5441 42.2487 91.8678 41.4268C94.1915 40.605 96.1734 39.4166 97.6379 37.9669C99.1024 36.5171 100.004 34.8507 100.264 33.1152C100.524 31.3797 100.133 29.6285 99.1269 28.0167C98.1205 26.405 96.5294 24.9823 94.4944 23.8746C92.4594 22.767 90.0432 22.0085 87.4598 21.6663C84.8764 21.3241 82.2055 21.4088 79.6833 21.9129C77.1611 22.417 74.8656 23.3249 72.9999 24.5562" fill="#151A2A"/>
<path d="M82.1825 21.5561C80.2467 19.3936 77.2217 17.7518 73.6389 16.9191C70.0561 16.0865 66.1446 16.1162 62.5916 17.003C59.0385 17.8898 56.0712 19.5771 54.2108 21.7683C52.3503 23.9596 51.7158 26.5148 52.4187 28.985C49.7273 29.085 47.201 29.8761 45.377 31.1901C43.553 32.504 42.5753 34.2371 42.6518 36.0209C42.7283 37.8046 43.853 39.4983 45.7866 40.7416C47.7202 41.9849 50.3103 42.6799 53.006 42.6786H84.3155C86.9501 42.6786 89.5441 42.2487 91.8678 41.4268C94.1915 40.605 96.1734 39.4166 97.6379 37.9669C99.1024 36.5171 100.004 34.8507 100.264 33.1152C100.524 31.3797 100.133 29.6285 99.1269 28.0167C98.1205 26.405 96.5294 24.9823 94.4944 23.8746C92.4594 22.767 90.0432 22.0085 87.4598 21.6663C84.8764 21.3241 82.2055 21.4088 79.6833 21.9129C77.1611 22.417 74.8656 23.3249 72.9999 24.5562" stroke="#F5F5F5" stroke-miterlimit="10"/>
<path d="M95.1825 41.5561C93.2467 39.3936 90.2217 37.7518 86.6389 36.9191C83.0561 36.0865 79.1446 36.1162 75.5916 37.003C72.0385 37.8898 69.0712 39.5771 67.2108 41.7683C65.3503 43.9596 64.7158 46.5148 65.4187 48.985C62.7273 49.085 60.201 49.8761 58.377 51.1901C56.553 52.504 55.5753 54.2371 55.6518 56.0209C55.7283 57.8046 56.853 59.4983 58.7866 60.7416C60.7202 61.9849 63.3103 62.6799 66.006 62.6786H97.3155C99.9501 62.6786 102.544 62.2487 104.868 61.4268C107.192 60.605 109.173 59.4166 110.638 57.9669C112.102 56.5171 113.004 54.8507 113.264 53.1152C113.524 51.3797 113.133 49.6285 112.127 48.0167C111.12 46.405 109.529 44.9823 107.494 43.8746C105.459 42.767 103.043 42.0085 100.46 41.6663C97.8764 41.3241 95.2055 41.4088 92.6833 41.9129C90.1611 42.417 87.8656 43.3249 85.9999 44.5562" fill="#151A2A"/>
<path d="M95.1825 41.5561C93.2467 39.3936 90.2217 37.7518 86.6389 36.9191C83.0561 36.0865 79.1446 36.1162 75.5916 37.003C72.0385 37.8898 69.0712 39.5771 67.2108 41.7683C65.3503 43.9596 64.7158 46.5148 65.4187 48.985C62.7273 49.085 60.201 49.8761 58.377 51.1901C56.553 52.504 55.5753 54.2371 55.6518 56.0209C55.7283 57.8046 56.853 59.4983 58.7866 60.7416C60.7202 61.9849 63.3103 62.6799 66.006 62.6786H97.3155C99.9501 62.6786 102.544 62.2487 104.868 61.4268C107.192 60.605 109.173 59.4166 110.638 57.9669C112.102 56.5171 113.004 54.8507 113.264 53.1152C113.524 51.3797 113.133 49.6285 112.127 48.0167C111.12 46.405 109.529 44.9823 107.494 43.8746C105.459 42.767 103.043 42.0085 100.46 41.6663C97.8764 41.3241 95.2055 41.4088 92.6833 41.9129C90.1611 42.417 87.8656 43.3249 85.9999 44.5562" stroke="#F5F5F5" stroke-miterlimit="10"/>
<path d="M59.2403 60.8728C56.841 58.3883 53.0917 56.502 48.651 55.5453C44.2103 54.5886 39.3623 54.6227 34.9585 55.6416C30.5548 56.6605 26.8769 58.5991 24.5711 61.1167C22.2652 63.6344 21.4788 66.5701 22.35 69.4082C19.0141 69.5231 15.8829 70.432 13.6222 71.9417C11.3615 73.4513 10.1497 75.4426 10.2445 77.492C10.3393 79.5414 11.7332 81.4873 14.1298 82.9158C16.5265 84.3443 19.7367 85.1427 23.0778 85.1413H61.884C65.1494 85.1413 68.3645 84.6473 71.2446 83.7031C74.1247 82.7588 76.5811 81.3935 78.3963 79.7278C80.2115 78.0621 81.3295 76.1476 81.6514 74.1535C81.9733 72.1595 81.4891 70.1476 80.2418 68.2957C78.9944 66.4439 77.0223 64.8093 74.5001 63.5367C71.9778 62.2641 68.9832 61.3926 65.7812 60.9995C62.5792 60.6063 59.2687 60.7037 56.1427 61.2828C53.0166 61.8619 50.1714 62.9051 47.859 64.3198" fill="#151A2A"/>
<path d="M59.2403 60.8728C56.841 58.3883 53.0917 56.502 48.651 55.5453C44.2103 54.5886 39.3623 54.6227 34.9585 55.6416C30.5548 56.6605 26.8769 58.5991 24.5711 61.1167C22.2652 63.6344 21.4788 66.5701 22.35 69.4082C19.0141 69.5231 15.8829 70.432 13.6222 71.9417C11.3615 73.4513 10.1497 75.4426 10.2445 77.492C10.3393 79.5414 11.7332 81.4873 14.1298 82.9158C16.5265 84.3443 19.7367 85.1427 23.0778 85.1413H61.884C65.1494 85.1413 68.3645 84.6473 71.2446 83.7031C74.1247 82.7588 76.5811 81.3935 78.3963 79.7278C80.2115 78.0621 81.3295 76.1476 81.6514 74.1535C81.9733 72.1595 81.4891 70.1476 80.2418 68.2957C78.9944 66.4439 77.0223 64.8093 74.5001 63.5367C71.9778 62.2641 68.9832 61.3926 65.7812 60.9995C62.5792 60.6063 59.2687 60.7037 56.1427 61.2828C53.0166 61.8619 50.1714 62.9051 47.859 64.3198" stroke="#F5F5F5" stroke-miterlimit="10"/>
<path d="M19.1347 94.5739V104.445M15 101.977L23.2694 97.0405M23.2694 101.977L15 97.0405M36.294 89V104.064M29.9838 100.299L42.6025 92.7651M42.6025 100.299L29.9838 92.7651" stroke="#F5F5F5" stroke-width="0.5" stroke-linecap="round" stroke-linejoin="round"/>
</g>
<defs>
<clipPath id="clip0_14_230">
<rect width="115" height="115" fill="white"/>
</clipPath>
</defs>
</svg>
