<svg width="126" height="90" viewBox="0 0 126 90" fill="none" xmlns="http://www.w3.org/2000/svg">
<path d="M78.9881 17.8728C76.7251 15.3883 73.1888 13.502 69.0004 12.5453C64.8121 11.5886 60.2395 11.6227 56.0859 12.6416C51.9324 13.6605 48.4635 15.5991 46.2886 18.1167C44.1138 20.6344 43.3721 23.5701 44.1938 26.4082C41.0474 26.5231 38.0941 27.432 35.9619 28.9417C33.8296 30.4513 32.6867 32.4426 32.7761 34.492C32.8655 36.5414 34.1802 38.4873 36.4407 39.9158C38.7011 41.3443 41.729 42.1427 44.8802 42.1413H61.2395M97.0556 36.7278C98.7677 35.0621 99.8222 33.1476 100.126 31.1535C100.429 29.1595 99.9727 27.1476 98.7962 25.2957C97.6197 23.4439 95.7597 21.8093 93.3808 20.5367C91.0018 19.2641 88.1773 18.3926 85.1573 17.9995C82.1373 17.6063 79.0149 17.7037 76.0664 18.2828C73.118 18.8619 70.4345 19.9051 68.2534 21.3198" stroke="#F5F5F5" stroke-miterlimit="10"/>
<path d="M96.2309 36.5104C93.9679 34.0258 90.4317 32.1396 86.2433 31.1829C82.0549 30.2262 77.4824 30.2603 73.3288 31.2792C69.1753 32.2981 65.7064 34.2366 63.5315 36.7543C61.3567 39.2719 60.615 42.2077 61.4367 45.0458C58.2903 45.1607 55.337 46.0696 53.2047 47.5792C51.0725 49.0889 49.9296 51.0801 50.019 53.1295C50.1084 55.179 51.4231 57.1248 53.6836 58.5533C55.944 59.9819 58.9718 60.7803 62.1231 60.7789H98.7244C101.804 60.7789 104.837 60.2849 107.553 59.3407C110.27 58.3964 112.586 57.031 114.298 55.3654C116.011 53.6997 117.065 51.7851 117.369 49.7911C117.672 47.7971 117.216 45.7851 116.039 43.9333C114.863 42.0815 113.003 40.4469 110.624 39.1743C108.245 37.9016 105.42 37.0302 102.4 36.637C99.3802 36.2439 96.2577 36.3412 93.3093 36.9204C90.3609 37.4995 87.6774 38.5426 85.4963 39.9574" stroke="#F5F5F5" stroke-miterlimit="10"/>
<path d="M33.375 36.3201C28.9212 37.3767 24.3478 39.801 22.0157 42.4119C19.6837 45.0228 18.8883 48.0672 19.7694 51.0105C16.3956 51.1296 13.2288 52.0722 10.9424 53.6377C8.65603 55.2033 7.43046 57.2683 7.52635 59.3936C7.62223 61.5189 9.03201 63.5369 11.4559 65.0183C13.8797 66.4997 17.1264 67.3277 20.5055 67.3263H59.7527C63.0552 67.3263 66.3068 66.814 69.2196 65.8348C72.1325 64.8556 74.6168 63.4396 76.4526 61.7123" stroke="#F5F5F5" stroke-miterlimit="10"/>
<path d="M51.3301 79.1286V89M47.1954 86.5317L55.4649 81.5952M55.4649 86.5317L47.1954 81.5952M85.2046 71V80.061M81.4108 77.7962L89 73.2648M89 77.7962L81.4108 73.2648M36.7954 72.2545V81.3155M33 79.0507L40.5909 74.5193M40.5892 79.0507L33 74.5193M68.4894 73.5547V88.6186M62.1792 84.8535L74.7979 77.3198M74.7979 84.8535L62.1792 77.3198" stroke="#F5F5F5" stroke-width="0.5" stroke-linecap="round" stroke-linejoin="round"/>
</svg>
