<svg width="126" height="90" viewBox="0 0 126 90" fill="none" xmlns="http://www.w3.org/2000/svg">
<path d="M78.988 17.8728C76.725 15.3883 73.1888 13.502 69.0004 12.5453C64.812 11.5886 60.2395 11.6227 56.0859 12.6416C51.9324 13.6605 48.4635 15.5991 46.2886 18.1167C44.1138 20.6344 43.3721 23.5701 44.1937 26.4082C41.0474 26.5231 38.0941 27.432 35.9618 28.9417C33.8296 30.4513 32.6867 32.4426 32.7761 34.492C32.8655 36.5414 34.1802 38.4873 36.4407 39.9158C38.7011 41.3443 41.7289 42.1427 44.8802 42.1413H61.2394M97.0556 36.7278C98.7676 35.0621 99.8221 33.1476 100.126 31.1535C100.429 29.1595 99.9727 27.1476 98.7962 25.2957C97.6197 23.4439 95.7597 21.8093 93.3807 20.5367C91.0018 19.2641 88.1773 18.3926 85.1573 17.9995C82.1373 17.6063 79.0148 17.7037 76.0664 18.2828C73.118 18.8619 70.4344 19.9051 68.2534 21.3198" stroke="#F5F5F5" stroke-miterlimit="10"/>
<path d="M96.2309 36.5104C93.9679 34.0258 90.4317 32.1396 86.2433 31.1829C82.0549 30.2262 77.4824 30.2603 73.3288 31.2792C69.1752 32.2981 65.7064 34.2366 63.5315 36.7543C61.3567 39.2719 60.6149 42.2077 61.4366 45.0458C58.2903 45.1607 55.337 46.0696 53.2047 47.5792C51.0725 49.0889 49.9295 51.0801 50.019 53.1295C50.1084 55.179 51.4231 57.1248 53.6836 58.5533C55.944 59.9819 58.9718 60.7803 62.1231 60.7789H98.7244C101.804 60.7789 104.837 60.2849 107.553 59.3407C110.27 58.3964 112.586 57.031 114.298 55.3654C116.011 53.6997 117.065 51.7851 117.369 49.7911C117.672 47.7971 117.216 45.7851 116.039 43.9333C114.863 42.0815 113.003 40.4469 110.624 39.1743C108.245 37.9016 105.42 37.0302 102.4 36.637C99.3801 36.2439 96.2577 36.3412 93.3093 36.9204C90.3609 37.4995 87.6773 38.5426 85.4963 39.9574" stroke="#F5F5F5" stroke-miterlimit="10"/>
<path d="M33.375 36.3201C28.9212 37.3767 24.3478 39.801 22.0157 42.4119C19.6837 45.0228 18.8883 48.0672 19.7694 51.0105C16.3956 51.1296 13.2288 52.0722 10.9424 53.6377C8.65605 55.2033 7.43048 57.2683 7.52636 59.3936C7.62225 61.5189 9.03202 63.5369 11.4559 65.0183C13.8797 66.4997 17.1264 67.3277 20.5055 67.3263H59.7527C63.0552 67.3263 66.3068 66.814 69.2197 65.8348C72.1325 64.8556 74.6168 63.4396 76.4526 61.7123" stroke="#F5F5F5" stroke-miterlimit="10"/>
<path d="M38.0319 77.8057C37.0702 79.278 35.2989 79.8361 34.076 79.052C32.8531 78.2679 32.6404 76.4412 33.6038 74.9671C33.6038 74.9671 34.7247 73.0565 38.7324 71.1168C38.7324 71.1168 39.5212 70.67 39.4641 71.5243C39.2202 75.9584 38.0319 77.8057 38.0319 77.8057ZM76.5666 77.8057C75.6031 79.278 73.8336 79.8361 72.6107 79.052C71.3861 78.2696 71.175 76.4412 72.1368 74.9671C72.1368 74.9671 73.2576 73.0565 77.2654 71.1168C77.2654 71.1168 78.0541 70.67 77.997 71.5243C77.7532 75.9584 76.5666 77.8057 76.5666 77.8057ZM57.2992 77.8057C56.3375 79.278 54.5663 79.8361 53.3434 79.052C52.1205 78.2679 51.9077 76.4412 52.8694 74.9671C52.8694 74.9671 53.992 73.0565 57.998 71.1168C57.998 71.1168 58.7885 70.67 58.7314 71.5243C58.4858 75.9584 57.2992 77.8057 57.2992 77.8057ZM47.0247 87.3964C46.063 88.8704 44.2935 89.4285 43.0706 88.6462C41.8477 87.8638 41.6349 86.0336 42.5966 84.5596C42.5966 84.5596 43.7175 82.649 47.7252 80.7092C47.7252 80.7092 48.514 80.2624 48.4569 81.1167C48.213 85.5508 47.0247 87.3964 47.0247 87.3964ZM66.2938 87.3964C65.3303 88.8704 63.5608 89.4285 62.3362 88.6462C61.1115 87.8638 60.9005 86.0336 61.864 84.5596C61.864 84.5596 62.9848 82.649 66.9926 80.7092C66.9926 80.7092 67.7813 80.2624 67.7242 81.1167C67.4786 85.5508 66.2938 87.3964 66.2938 87.3964Z" fill="#151A2A" stroke="#F5F5F5" stroke-width="0.5" stroke-linecap="round" stroke-linejoin="round"/>
</svg>
