<svg width="115" height="115" viewBox="0 0 115 115" fill="none" xmlns="http://www.w3.org/2000/svg">
<g clip-path="url(#clip0_13_147)">
<g clip-path="url(#clip1_13_147)">
<path d="M96.1353 84.3693C87.1821 99.5493 70.6724 109.729 51.786 109.729C23.3619 109.729 0.318756 86.6669 0.318756 58.2188C0.318756 29.7707 23.3595 6.70837 51.7813 6.70837C19.5 64.5 68.0106 86.2932 96.1353 84.3693Z" stroke="#F8A92D" stroke-linecap="round" stroke-linejoin="round"/>
<path d="M82.3015 55.3428C79.3488 51.4875 74.7349 48.5606 69.2701 47.0761C63.8053 45.5916 57.8393 45.6445 52.4199 47.2256C47.0006 48.8066 42.4745 51.8146 39.6369 55.7212C36.7993 59.6278 35.8315 64.1832 36.9036 68.587C32.7984 68.7653 28.9451 70.1757 26.163 72.5182C23.381 74.8607 21.8897 77.9505 22.0064 81.1306C22.123 84.3106 23.8384 87.33 26.7878 89.5466C29.7371 91.7632 33.6876 93.0022 37.7993 93H85.5548C89.5733 93 93.5298 92.2335 97.0742 90.7683C100.618 89.3031 103.641 87.1845 105.875 84.5999C108.109 82.0153 109.485 79.0444 109.881 75.9503C110.277 72.8562 109.681 69.7343 108.146 66.8608C106.611 63.9874 104.184 61.451 101.08 59.4763C97.9765 57.5015 94.2912 56.1493 90.3508 55.5393C86.4104 54.9293 82.3365 55.0803 78.4895 55.9789C74.6425 56.8776 71.1412 58.4962 68.2954 60.6914" fill="#151A2A"/>
<path d="M82.3015 55.3428C79.3488 51.4875 74.7349 48.5606 69.2701 47.0761C63.8053 45.5916 57.8393 45.6445 52.4199 47.2256C47.0006 48.8066 42.4745 51.8146 39.6369 55.7212C36.7993 59.6278 35.8315 64.1832 36.9036 68.587C32.7984 68.7653 28.9451 70.1757 26.163 72.5182C23.381 74.8607 21.8897 77.9505 22.0064 81.1306C22.123 84.3106 23.8384 87.33 26.7878 89.5466C29.7371 91.7632 33.6876 93.0022 37.7993 93H85.5548C89.5733 93 93.5298 92.2335 97.0742 90.7683C100.618 89.3031 103.641 87.1845 105.875 84.5999C108.109 82.0153 109.485 79.0444 109.881 75.9503C110.277 72.8562 109.681 69.7343 108.146 66.8608C106.611 63.9874 104.184 61.451 101.08 59.4763C97.9765 57.5015 94.2912 56.1493 90.3508 55.5393C86.4104 54.9293 82.3365 55.0803 78.4895 55.9789C74.6425 56.8776 71.1412 58.4962 68.2954 60.6914" stroke="#F5F5F5" stroke-miterlimit="10"/>
<path d="M39.8883 101.915C38.954 102.979 37.2333 103.382 36.0453 102.815C34.8573 102.249 34.6506 100.93 35.5866 99.8652C35.5866 99.8652 36.6755 98.4853 40.5688 97.0844C40.5688 97.0844 41.3351 96.7616 41.2796 97.3786C41.0427 100.581 39.8883 101.915 39.8883 101.915ZM58.6058 101.915C57.6715 102.979 55.9508 103.382 54.7628 102.815C53.5748 102.249 53.3681 100.93 54.3024 99.8652C54.3024 99.8652 55.393 98.4853 59.2847 97.0844C59.2847 97.0844 60.0526 96.7616 59.9971 97.3786C59.7585 100.581 58.6058 101.915 58.6058 101.915ZM48.6245 108.842C47.6902 109.906 45.9712 110.31 44.7832 109.744C43.5952 109.179 43.3885 107.858 44.3228 106.793C44.3228 106.793 45.4116 105.413 49.305 104.012C49.305 104.012 50.0713 103.69 50.0158 104.307C49.7789 107.509 48.6245 108.842 48.6245 108.842Z" fill="#151A2A" stroke="#F5F5F5" stroke-width="0.5" stroke-linecap="round" stroke-linejoin="round"/>
</g>
</g>
<defs>
<clipPath id="clip0_13_147">
<rect width="115" height="115" fill="white"/>
</clipPath>
<clipPath id="clip1_13_147">
<rect width="115" height="115" fill="white" transform="translate(-5)"/>
</clipPath>
</defs>
</svg>
