<svg width="115" height="115" viewBox="0 0 115 115" fill="none" xmlns="http://www.w3.org/2000/svg">
<path d="M57.5 31.1458C50.5104 31.1458 43.8072 33.9224 38.8648 38.8647C33.9224 43.8071 31.1458 50.5104 31.1458 57.5C31.1458 62.7123 32.6915 67.8076 35.5873 72.1415C38.4831 76.4755 42.5991 79.8533 47.4147 81.848C52.2303 83.8427 57.5292 84.3646 62.6414 83.3477C67.7537 82.3309 72.4495 79.8209 76.1352 76.1352C79.8209 72.4495 82.3309 67.7536 83.3478 62.6414C84.3647 57.5292 83.8428 52.2302 81.8481 47.4147M106.615 57.5H91.976M92.2396 92.2395L81.8896 81.8895M57.5 106.615V91.976M22.7604 92.2395L33.1104 81.8895M8.38542 57.5H23.024M22.7604 22.7604L33.1104 33.1104" stroke="#F8A92D" stroke-linecap="round" stroke-linejoin="round"/>
<path d="M88.1825 25.5561C86.2467 23.3936 83.2217 21.7518 79.6389 20.9191C76.0561 20.0865 72.1446 20.1162 68.5916 21.003C65.0385 21.8898 62.0712 23.5771 60.2108 25.7683C58.3503 27.9596 57.7158 30.5148 58.4187 32.985C55.7273 33.085 53.201 33.8761 51.377 35.1901C49.553 36.504 48.5753 38.2371 48.6518 40.0209C48.7283 41.8046 49.853 43.4983 51.7866 44.7416C53.7202 45.9849 56.3103 46.6799 59.006 46.6786H90.3155C92.9501 46.6786 95.5441 46.2487 97.8678 45.4268C100.192 44.605 102.173 43.4166 103.638 41.9669C105.102 40.5171 106.004 38.8507 106.264 37.1152C106.524 35.3797 106.133 33.6285 105.127 32.0167C104.12 30.405 102.529 28.9823 100.494 27.8746C98.4594 26.767 96.0432 26.0085 93.4598 25.6663C90.8764 25.3241 88.2055 25.4088 85.6833 25.9129C83.1611 26.417 80.8656 27.3249 78.9999 28.5562" stroke="#F5F5F5" stroke-miterlimit="10"/>
</svg>
