<svg width="115" height="115" viewBox="0 0 115 115" fill="none" xmlns="http://www.w3.org/2000/svg">
<path d="M57.5 8.38538V23.0239M92.2396 22.7604L81.8896 33.1104M106.615 57.5H91.976M92.2396 92.2395L81.8896 81.8895M57.5 106.615V91.976M22.7604 92.2395L33.1104 81.8895M8.38542 57.5H23.024M22.7604 22.7604L33.1104 33.1104M57.5 31.1458C62.7124 31.1458 67.8077 32.6914 72.1416 35.5873C76.4755 38.4831 79.8534 42.5991 81.8481 47.4147C83.8428 52.2302 84.3647 57.5292 83.3478 62.6414C82.3309 67.7536 79.8209 72.4495 76.1352 76.1352C72.4495 79.8209 67.7537 82.3309 62.6414 83.3477C57.5292 84.3646 52.2303 83.8427 47.4147 81.848C42.5991 79.8533 38.4831 76.4755 35.5873 72.1415C32.6915 67.8076 31.1458 62.7123 31.1458 57.5C31.1458 50.5104 33.9224 43.8071 38.8648 38.8647C43.8072 33.9224 50.5104 31.1458 57.5 31.1458Z" stroke="#F8A92D" stroke-linecap="round" stroke-linejoin="round"/>
</svg>
